<svg width="628" height="248" viewBox="0 0 628 248" fill="none" xmlns="http://www.w3.org/2000/svg">
<rect x="515.975" y="136.468" width="112.025" height="111.532" fill="#323033"/>
<rect x="515.974" width="112.025" height="111.532" fill="#323033"/>
<path d="M609.324 32.4285C608.614 31.9753 606.834 31.3903 605.397 31.1378C604.307 30.9465 601.749 30.8018 601.183 30.8994C601.014 30.9287 600.489 31.0131 600.015 31.0871C597.985 31.4048 595.794 32.5314 594.628 33.858C593.468 35.1774 592.82 36.8666 592.822 38.5651C592.825 40.4507 593.544 42.1864 594.888 43.5558C595.897 44.5837 597.249 45.316 599.462 46.033C600.307 46.3071 601.704 46.758 602.566 47.0349C604.583 47.6831 605.456 48.1334 606.08 48.8465C607.399 50.355 606.846 52.6044 604.909 53.6084C602.684 54.761 598.244 54.5215 594.736 53.0596C592.786 52.2467 592.414 52.4848 592.481 54.5035C592.528 55.8897 592.672 56.1803 593.577 56.7157C595.464 57.832 599.055 58.5363 602.155 58.3984C605.436 58.2524 607.83 57.3183 609.556 55.5094C611.066 53.926 611.655 52.4873 611.674 50.3286C611.689 48.6874 611.415 47.6976 610.591 46.4153C609.52 44.7481 608.29 44.0461 603.913 42.6014C599.463 41.1325 598.526 40.6331 597.974 39.4342C597.442 38.2816 597.853 36.645 598.857 35.9128C600.621 34.6266 605.302 34.6611 608.191 35.9817C608.562 36.1513 609.094 36.3215 609.373 36.36C610.125 36.4638 610.284 36.1732 610.284 34.6961C610.284 33.304 610.131 32.9436 609.324 32.4285Z" fill="white"/>
<path d="M560.56 32.4797C560.461 32.2871 560.26 32.0202 560.113 31.8866C559.877 31.6717 559.624 31.6385 557.918 31.599C556.281 31.561 555.947 31.5848 555.712 31.7563C555.312 32.0485 555.353 32.7213 555.876 34.4203C556.117 35.2033 556.36 36.0111 556.415 36.2154C556.536 36.657 557.411 39.5659 558.63 43.5815C559.116 45.1816 559.559 46.6579 559.614 46.8622C559.67 47.0665 559.997 48.1668 560.342 49.3073C560.687 50.4477 561.251 52.3141 561.594 53.4546C561.938 54.595 562.303 55.8024 562.405 56.1376C562.829 57.5327 563.147 57.6947 565.458 57.6947C567.28 57.6947 567.816 57.5652 568.156 57.0425C568.343 56.7562 568.639 55.612 569.816 50.6381C570.098 49.4465 570.468 47.8867 570.638 47.1717C572.19 40.6509 572.499 39.3336 572.587 38.8771C572.718 38.1961 572.784 38.0105 572.894 38.0105C572.95 38.0105 573.173 38.7766 573.39 39.7128C573.606 40.6491 573.995 42.2785 574.254 43.3339C574.714 45.2043 574.872 45.8643 575.784 49.7096C576.026 50.731 576.278 51.7616 576.344 51.9999C576.409 52.2382 576.683 53.3659 576.952 54.506C577.221 55.6461 577.53 56.7507 577.637 56.9608C577.949 57.568 578.432 57.6948 580.427 57.6942C581.952 57.6939 582.235 57.6619 582.577 57.4521C583.141 57.1061 583.194 56.9728 584.527 52.6189C584.683 52.1082 585.142 50.6319 585.547 49.3382C585.952 48.0445 586.487 46.3175 586.737 45.5004C586.986 44.6833 587.355 43.4856 587.557 42.8387C587.759 42.1919 587.975 41.4955 588.037 41.2912C588.154 40.9094 588.831 38.7283 589.478 36.6487C590.791 32.4286 590.814 32.3235 590.5 31.9337C590.264 31.6411 590.219 31.6348 588.368 31.6348C587.164 31.6348 586.526 31.6049 586.106 31.892C585.583 32.2503 585.399 33.1022 584.882 35.122C584.571 36.3361 584.179 37.8589 584.011 38.5057C583.358 41.0171 581.719 47.4206 580.905 50.6381C580.725 51.3531 580.526 51.938 580.465 51.938C580.403 51.938 580.225 51.3809 580.07 50.7C579.914 50.0191 579.594 48.6542 579.359 47.6669C578.825 45.4289 577.717 40.678 577.006 37.5772C575.799 32.3171 575.755 32.1737 575.246 31.838C574.994 31.6716 574.592 31.6348 573.027 31.6348C570.592 31.6348 570.351 31.7607 570.005 33.218C569.92 33.5729 569.567 35.0888 569.219 36.5868C568.871 38.0848 568.453 39.8675 568.29 40.5484C568.127 41.2293 567.858 42.3714 567.693 43.0863C567.527 43.8013 567.137 45.4726 566.825 46.8003C566.514 48.1281 566.133 49.7715 565.978 50.4524C565.824 51.1333 565.645 51.6797 565.581 51.6664C565.517 51.6533 564.929 49.5084 564.275 46.9001C563.62 44.2919 562.557 40.059 561.912 37.494C561.267 34.9289 560.659 32.6725 560.56 32.4797Z" fill="white"/>
<path d="M615.025 65.2583C614.808 64.8365 613.943 64.4368 612.701 64.1841C612.217 64.0857 610.88 63.9829 609.73 63.9558C607.563 63.9048 607.389 63.9135 605.857 64.1478C605.037 64.2731 604.603 64.3718 603.213 64.7491C602.572 64.9228 601.873 65.2052 601.054 65.6203C599.38 66.4688 598.737 67.1049 599.103 67.5488C599.129 67.5812 599.147 67.6091 599.169 67.632C599.304 67.7682 599.617 67.7295 603.09 67.4181C607.821 66.9937 610.319 67.275 610.989 68.3077C611.341 68.8505 611.258 70.5671 610.794 72.3098C610.414 73.7395 609.632 76.0601 608.878 77.9979C608.37 79.3017 608.319 79.5199 608.461 79.7755C608.949 80.652 611.247 78.4143 612.84 75.5129C613.469 74.3669 614.285 72.2733 614.663 70.8376C615.2 68.7936 615.384 65.9584 615.025 65.2583Z" fill="white"/>
<path d="M531.086 66.6685C530.375 66.2741 529.656 65.8767 529.487 65.7854C528.478 65.2411 527.795 66.1602 528.58 67.0045C529.107 67.5719 531.57 69.6231 533.176 70.8334C535.4 72.5094 537.703 74.0115 540.37 75.5276C540.966 75.8661 544.433 77.608 545.29 77.9993C547.289 78.9127 551.212 80.3374 553.775 81.0812C560.069 82.9076 567.83 83.8057 574.324 83.459C577.976 83.264 580.963 82.9282 583.228 82.4577C583.533 82.3946 584.114 82.2764 584.52 82.1951C589.334 81.2312 594.524 79.5328 598.707 77.5526C599.34 77.2528 599.88 77.0075 599.906 77.0075C600.007 77.0075 603.286 75.1448 604.269 74.5296C605.958 73.4718 607.22 72.5171 607.405 72.1574C607.676 71.6304 607.618 71.2096 607.219 70.808C606.731 70.3175 606.066 70.322 604.859 70.8242C599.263 73.1529 591.569 75.3638 586.381 76.1342C585.966 76.1959 585.045 76.337 584.335 76.4481C580.478 77.0509 577.104 77.2674 571.976 77.241C569.609 77.2288 567.174 77.1729 566.565 77.1169C562.202 76.7151 561.672 76.6506 558.51 76.1362C554.071 75.4142 549.971 74.4059 545.351 72.8992C543.316 72.2355 539.996 70.9843 538.526 70.3267C538.255 70.2057 537.563 69.8971 536.989 69.6409C535.578 69.0128 532.666 67.5462 531.086 66.6685Z" fill="white"/>
<path fill-rule="evenodd" clip-rule="evenodd" d="M544.613 30.9581C549.255 31.4499 551.66 33.4883 552.569 37.701C552.717 38.3864 552.773 39.9918 552.838 45.3766C552.902 50.7009 552.957 52.2666 553.087 52.557C553.179 52.7613 553.446 53.3462 553.681 53.8569C554.179 54.9431 554.286 55.4546 554.091 55.8224C554.013 55.9688 553.412 56.45 552.756 56.8916C551.462 57.7632 550.872 57.907 550.286 57.4942C549.906 57.226 549.052 56.0358 548.671 55.2436C548.502 54.8915 548.299 54.6027 548.219 54.6017C548.139 54.6006 547.751 54.9106 547.358 55.2907C545.854 56.7423 544.008 57.7071 541.916 58.1338C540.484 58.4258 538.003 58.3323 536.866 57.9434C535.487 57.472 534.753 57.0401 533.919 56.2091C532.416 54.7118 531.778 53.0101 531.783 50.5143C531.786 49.1622 531.829 48.8418 532.121 47.9764C532.671 46.3446 533.35 45.3666 534.678 44.2931C535.878 43.3244 537.173 42.7647 539.054 42.4023C540.769 42.0719 543.804 42.2089 546.335 42.7311C546.707 42.8079 547.205 42.8775 547.442 42.8856L547.872 42.9006L547.847 41.213C547.789 37.2109 546.834 35.7882 543.816 35.2036C542.633 34.9746 540.604 35.0355 539.16 35.3435C538.075 35.575 536.193 36.1686 535.451 36.5136C535.181 36.6394 534.732 36.7806 534.453 36.8274C533.847 36.9292 533.596 36.7375 533.473 36.079C533.334 35.3337 533.48 33.7343 533.72 33.365C534.186 32.6495 537.551 31.4054 539.878 31.0885C541.903 30.8128 542.965 30.7836 544.613 30.9581ZM537.98 47.3723C538.655 46.6291 539.391 46.2516 540.665 45.9961C541.763 45.7757 543.29 45.7734 544.987 45.9894C546.905 46.2337 547.717 46.403 547.842 46.5852C547.979 46.7852 547.841 49.0477 547.638 49.9271C547.216 51.755 545.499 53.3849 543.356 53.993C541.897 54.4067 539.904 54.4076 538.99 53.9951C537.631 53.3823 536.938 52.119 536.943 50.2667C536.947 48.9974 537.236 48.1925 537.98 47.3723Z" fill="white"/>
<path d="M599.381 180.133C599.247 180.058 599.104 179.999 598.945 179.971C598.327 179.86 597.725 179.803 597.135 179.773C594.158 168.953 584.073 161.211 572.727 161.211C558.761 161.211 547.4 172.516 547.4 186.412C547.4 187.168 547.439 187.929 547.516 188.705C546.643 188.486 545.705 188.371 544.711 188.429C544.704 188.429 544.697 188.428 544.69 188.428C544.673 188.428 544.656 188.431 544.638 188.431C544.621 188.432 544.606 188.431 544.588 188.432C544.584 188.432 544.58 188.433 544.576 188.433C536.934 188.494 530.735 194.694 530.735 202.314C530.735 209.972 536.995 216.203 544.689 216.203H560.355C560.45 216.203 560.542 216.193 560.633 216.175C560.703 216.186 560.774 216.196 560.848 216.196C572.262 216.196 574.658 208.366 574.658 201.797V200.442L578.743 203.795C578.743 203.795 580.141 201.938 580.415 201.573L574.174 196.611C574.162 196.602 574.149 196.597 574.137 196.589C574.094 196.559 574.05 196.534 574.004 196.51C573.967 196.49 573.93 196.469 573.892 196.453C573.851 196.434 573.809 196.422 573.766 196.408C573.722 196.394 573.677 196.379 573.632 196.37C573.591 196.36 573.549 196.356 573.507 196.35C573.46 196.345 573.414 196.338 573.367 196.337C573.324 196.336 573.279 196.34 573.235 196.344C573.191 196.347 573.146 196.349 573.102 196.358C573.058 196.365 573.013 196.377 572.969 196.389C572.927 196.401 572.884 196.411 572.842 196.428C572.801 196.444 572.761 196.463 572.721 196.483C572.678 196.505 572.636 196.526 572.595 196.552C572.581 196.56 572.566 196.566 572.552 196.574L566.038 201.5C566.307 201.895 567.608 203.795 567.608 203.795L571.867 200.395V201.797C571.867 209.725 568.366 213.419 560.847 213.419C560.751 213.419 560.659 213.43 560.569 213.447C560.498 213.436 560.427 213.426 560.354 213.426H544.689C538.534 213.426 533.525 208.441 533.525 202.314C533.525 196.187 538.534 191.204 544.689 191.204C545.583 191.204 546.491 191.333 547.399 191.569C549.704 192.348 551.33 194.051 551.367 194.092C551.702 194.092 553.16 192.463 553.428 192.219C553.345 192.128 552.253 190.964 550.506 189.944C550.306 188.72 550.19 187.553 550.19 186.411C550.19 174.046 560.301 163.987 572.727 163.987C582.608 163.987 591.405 170.59 594.259 179.899C590.66 180.396 588.124 181.971 587.978 182.063C588.244 182.479 589.477 184.405 589.477 184.405C589.51 184.385 592.098 182.794 595.562 182.558L596.04 182.561C604.523 182.633 611.425 189.553 611.425 197.987C611.425 206.499 604.468 213.424 595.916 213.424H584.182V216.201H595.915C606.006 216.201 614.214 208.031 614.214 197.987C614.214 189.166 607.807 181.762 599.381 180.133Z" fill="white"/>
<line x1="92.9956" y1="123.018" x2="368.981" y2="123.018" stroke="#919E9F" stroke-dasharray="8.58 2.15"/>
<line x1="368.481" y1="55.7825" x2="368.481" y2="192.25" stroke="#919E9F" stroke-dasharray="8.58 2.15"/>
<line x1="368.981" y1="191.75" x2="515.974" y2="191.75" stroke="#919E9F" stroke-dasharray="8.58 2.15"/>
<line x1="368.981" y1="55.2825" x2="515.974" y2="55.2825" stroke="#919E9F" stroke-dasharray="8.58 2.15"/>
<rect y="77.697" width="92.6533" height="91.7292" fill="#F8D231"/>
</svg>
